<svg width="160" height="120" viewBox="0 0 160 120" fill="none" xmlns="http://www.w3.org/2000/svg">
  <rect width="160" height="120" fill="#F3F4F6"/>
  <path d="M80 60C88.2843 60 95 53.2843 95 45C95 36.7157 88.2843 30 80 30C71.7157 30 65 36.7157 65 45C65 53.2843 71.7157 60 80 60Z" fill="#9B9BA0"/>
  <path d="M80 70C66.8649 70 57 79.8649 57 93V100H63V93C63 82.5066 70.5066 75 80 75L80 70Z" fill="#9B9BA0"/>
  <path d="M103 93C103 79.8649 93.1351 70 80 70L100 75L100 75C109.493 75 117 82.5066 117 92V100H113V93Z" fill="#9B9BA0"/>
</svg> 