<svg xmlns="http://www.w3.org/2000/svg" width="129" height="127" fill="none"><path fill="#fff" d="M14.145 89.557C4.736 83.68-.501 72.292 1.54 62.173 2.99 54.96 5.938 48.697 13.85 44.5c6.801-3.585 14.17-7.033 20.653-10.504 11.29-6.013 20.676-13.658 33.032-16.948 10.973-2.926 23.397-3.04 33.326 1.68 3.673 1.746 6.824 4.196 9.454 7.304 2.267 2.7 4.172 7.101 5.169 10.482 3.945 13.408-1.111 28.631-10.655 36.572-12.084 10.05-23.487 17.537-37.113 21.712-9.68 2.949-17.162 3.584-26.457 3.017-9.748-.613-19.429-3.448-27.114-8.258Z"/><path fill="#04E061" d="M112.378 73.812c4.783 0 8.66-3.88 8.66-8.667 0-4.786-3.877-8.666-8.66-8.666s-8.66 3.88-8.66 8.666c0 4.787 3.877 8.667 8.66 8.667Z"/><path fill="#FF4053" d="M75.062 19.408a3.992 3.992 0 0 0 3.99-3.993 3.992 3.992 0 0 0-3.99-3.993 3.992 3.992 0 0 0-3.99 3.993 3.992 3.992 0 0 0 3.99 3.993Z"/><path fill="#965EEB" d="M23.553 31.704a5.965 5.965 0 0 0 5.963-5.967 5.965 5.965 0 0 0-5.963-5.966 5.965 5.965 0 0 0-5.962 5.966 5.965 5.965 0 0 0 5.962 5.967Z"/><path fill="#0AF" d="m34.187 28.46 7.119-4.243c.022-.022.068-.022.113-.022 1.428.181 30.991 3.811 40.99 5.014.067 0 .135.067.135.136 2.245 15.336 4.648 25.364 10.043 36.413 2.857 5.876 7.89 12.614 13.263 17.424.091.068.068.204-.023.25-2.358 1.338-5.123 2.585-7.504 3.788l4.036 5.49c.068.091.022.204-.046.25-3.877 2.132-5.35 2.518-9.363 3.97l1.066 5.105c.022.068-.023.136-.091.181l-6.393 3.29c-.023.023-.046.023-.068.023-2.245 0-43.098.431-45.841.453-.09 0-.159-.068-.159-.136-.204-1.906-2.403-22.415-2.788-26.158-.794-7.94-1.791-16.176-2.426-24.117-.703-8.961-1.587-18.014-2.086-26.975-.068-.046-.045-.09.023-.136Z"/><path fill="#0470FF" d="m47.404 30.434-2.812-.068c-.136 0-.226-.114-.25-.227l-.271-3.108a.24.24 0 0 1 .272-.273l2.88.318c.113.023.226.113.226.227l.204 2.858c.023.137-.09.273-.25.273ZM55.905 31.455l-2.81-.068c-.137 0-.227-.114-.25-.227l-.272-3.108a.24.24 0 0 1 .272-.273l2.88.318c.112.023.226.113.226.227l.204 2.858c.023.137-.09.273-.25.273ZM64.792 32.271l-2.947-.068c-.136 0-.227-.113-.25-.227l-.317-2.994a.24.24 0 0 1 .272-.273l2.925.318c.113.023.226.114.226.227l.34 2.745c.023.159-.09.272-.25.272ZM73.225 33.224l-2.947-.068c-.136 0-.227-.113-.25-.227l-.317-2.994a.24.24 0 0 1 .273-.273l2.924.318c.113.023.227.113.227.227l.34 2.745c.023.159-.09.272-.25.272ZM81.365 33.927l-2.947-.068c-.136 0-.227-.113-.25-.227l-.317-2.994a.24.24 0 0 1 .272-.273l2.925.318c.113.023.226.114.226.227l.34 2.745c.023.159-.113.272-.249.272Z"/><path fill="#000" d="M43.164 30.07c-.09 0-.204-.067-.227-.18-.023-.114.046-.25.159-.273 1.859-.477 3.65-2.269 3.469-5.173-.091-1.429-.658-2.722-1.542-3.607-.77-.749-1.746-1.134-3.151-1.27-1.451-.114-2.925.317-3.99 1.157-.93.748-1.565 1.928-1.769 3.244-.181 1.18 0 2.473.522 3.766.045.113 0 .25-.136.295a.218.218 0 0 1-.295-.136c-.544-1.339-.726-2.723-.544-3.993.204-1.43.907-2.7 1.927-3.54 1.133-.93 2.743-1.406 4.307-1.27 1.52.136 2.585.567 3.446 1.384.975.953 1.587 2.382 1.678 3.902.204 3.176-1.768 5.105-3.809 5.627 0 .068-.022.068-.045.068Z"/><path fill="#0470FF" d="M69.123 101.127c8.23-.295 17.41-1.928 23.736-4.174l.544 2.586c-3.015 1.157-6.438 2.201-9.839 2.882-2.54.521-4.466 1.066-7.05 1.361-1.769.204-3.56.181-5.306-.182-.59-.113-1.836-.227-2.085-.907-.25-.704 0-1.566 0-1.566Z"/><path fill="#0470FF" d="m65.042 102.171-9.704-3.086c-8.297-16.312-13.942-74.096-14.01-74.868-.023 0-.023 0-.046.023l-3.718 2.223-3.378 2.02c-.045.022-.09.09-.068.136l1.18 16.221c0 .045 0 .113.022.159l1.7 19.602 4.376 41.245c0 .091.068.136.158.136 2.744-.022 43.597-.453 45.841-.453.023 0 .046 0 .068-.023l.635-.34 5.758-2.972c.023-.023.046-.023.069-.069l-28.883.046Z"/><path fill="#0470FF" d="m98.255 87.243 1.678 2.291c-10.701 6.058-23.057 9.347-35.367 9.37.204-1.225-.748-2.813.77-2.836 1.792-.023 4.014-.09 5.782-.386 10.814-1.701 18.363-4.174 27.137-8.44Z"/><path fill="#000" d="M52.573 30.23c-.091 0-.204-.069-.227-.182-.023-.113.045-.25.159-.272 1.723-.431 3.378-2.087 3.219-4.787-.09-1.316-.612-2.541-1.428-3.335-.703-.703-1.61-1.044-2.925-1.157-1.338-.114-2.72.295-3.695 1.089-.953.771-1.587 2.064-1.746 3.47a.266.266 0 0 1-.25.205.247.247 0 0 1-.203-.25c.158-1.52.884-2.949 1.904-3.788 1.066-.862 2.562-1.293 4.013-1.18 1.428.113 2.403.522 3.196 1.293.907.885 1.474 2.224 1.565 3.653.181 2.95-1.655 4.764-3.56 5.263.023-.045 0-.022-.022-.022Z"/><path fill="#000" d="M60.893 31.023a.22.22 0 0 1-.227-.181c-.023-.113.068-.25.181-.25.227-.045.454-.09.703-.158 1.52-.386 2.993-1.86 2.834-4.243-.068-1.157-.544-2.246-1.27-2.972-.68-.658-1.586-1.044-2.697-1.134-1.202-.114-2.517.272-3.378.975-.726.59-1.565 1.725-1.723 3.086a.247.247 0 0 1-.25.204.247.247 0 0 1-.204-.25c.159-1.497 1.066-2.745 1.882-3.403.952-.771 2.38-1.18 3.695-1.066 1.225.113 2.222.522 2.97 1.248.816.794 1.338 1.974 1.406 3.267.159 2.654-1.474 4.265-3.174 4.719-.272.068-.499.113-.748.159.045 0 .023 0 0 0Z"/><path fill="#000" d="M69.077 32.044a.227.227 0 0 1-.227-.226c0-.137.091-.227.227-.227h.272c.227 0 .454 0 .658-.068 1.519-.386 2.992-1.86 2.834-4.243-.069-1.157-.545-2.246-1.27-2.972-.635-.612-1.428-.93-2.584-1.043-1.18-.091-2.404.25-3.288.952-.839.681-1.406 1.838-1.541 3.086a.247.247 0 0 1-.25.204.247.247 0 0 1-.204-.25c.136-1.36.77-2.631 1.7-3.38.953-.771 2.29-1.157 3.605-1.043 1.27.113 2.154.476 2.88 1.157.816.794 1.337 1.973 1.405 3.267.159 2.654-1.474 4.265-3.174 4.719-.272.067-.521.067-.77.067h-.273ZM78.531 32.475c-.204 0-.385 0-.567-.022a.227.227 0 0 1-.227-.227c0-.114.114-.227.227-.227.43.023.907.045 1.292-.068 1.338-.34 2.63-1.634 2.494-3.72-.068-1.022-.476-1.974-1.11-2.61-.545-.544-1.248-.816-2.29-.907-1.043-.091-2.131.227-2.88.84-.725.59-1.247 1.61-1.36 2.722a4.417 4.417 0 0 0-.045.567c0 .136-.09.227-.227.227a.227.227 0 0 1-.227-.227c0-.227.023-.431.046-.635.136-1.226.703-2.337 1.519-3.018.838-.68 2.04-1.043 3.219-.93 1.133.09 1.927.408 2.562 1.044.725.703 1.179 1.77 1.247 2.904.136 2.36-1.315 3.811-2.834 4.197a3.28 3.28 0 0 1-.839.09Z"/><path fill="#0AF" d="m44.366 30.207-1.565.363-.498-1.974 1.881-.227.182 1.838ZM52.799 30.57l-1.179-.204v-.908l1.066-.09.113 1.202ZM61.55 31.386h-1.587v-1.225l1.428-.068.159 1.293ZM69.984 32.498h-1.61v-1.18l1.474-.113.136 1.293ZM78.077 32.725l-.861-.045v-.84l.748-.068.113.953ZM74.564 29.186h-1.066l-.022-1.021.906.09.182.931ZM64.134 27.598h-.544l-.045-.635.748.09-.159.545ZM55.27 26.509h-.634v-.636l.884.114-.25.522ZM45.885 25.51h-.635v-.77l.861.09-.226.68Z"/><path fill="#0470FF" d="M84.742 42.39c-.09.023-.181.045-.272.09-3.378 1.044-6.665 2.292-9.952 3.608-1.315.522-4.466-.613-5.532.34-1.066.93 1.066 3.766 1.95 4.402.816.567 1.745.862 2.698 1.134a26.481 26.481 0 0 0 13.511.09 120.4 120.4 0 0 1-2.403-9.664Z"/><path fill="#00409E" d="M50.487 102.194c-.045 0-.09-.046-.113-.091-4.693-26.544-9.907-64.546-10.52-76.751 0-.068.046-.114.114-.114s.113.046.113.114c.612 12.16 5.804 50.093 10.497 76.615l7.595-.454c.068 0 .113.045.113.113s-.045.114-.113.114l-7.686.454Z"/><path fill="#00409E" d="M48.356 103.26c-.046 0-.114-.045-.114-.091-.906-5.785-8.796-57.172-9.93-76.842 0-.068.046-.113.114-.113s.113.045.113.113c1.134 19.557 8.955 70.467 9.93 76.729 1.043-.023 2.993-.136 5.464-.25 7.617-.386 20.358-1.066 30.402-.749.068 0 .113.046.113.114s-.045.113-.113.113c-10.044-.317-22.762.341-30.38.749-2.561.113-4.579.204-5.6.227Z"/><path fill="#00409E" d="M46.837 104.326c-.068 0-.114-.045-.114-.091-.544-4.129-1.428-10.232-2.448-17.287-2.902-19.92-6.892-47.19-7.323-59.759 0-.068.046-.113.114-.113.067 0 .113.045.113.113.43 12.546 4.42 39.817 7.323 59.736 1.02 7.01 1.904 13.068 2.448 17.174 4.24-.09 8.706-.272 13.444-.453 9.386-.386 20.018-.84 30.583-.454.068 0 .114.045.114.113s-.046.114-.114.114c-10.565-.386-21.175.068-30.56.453-4.807.182-9.318.363-13.58.454Z"/><path fill="#00409E" d="M46.86 105.166c-.68 0-1.248 0-1.724-.023-.045 0-.113-.045-.113-.091-.658-5.036-1.587-11.525-2.562-18.422-2.766-19.375-6.212-43.514-7.073-58.465 0-.068.045-.113.113-.113s.113.045.113.113c.862 14.928 4.308 39.045 7.074 58.442.975 6.83 1.904 13.295 2.562 18.332 3.06.068 10.315-.114 18-.318 9.817-.249 20.926-.544 25.573-.34.068 0 .114.045.114.113s-.046.114-.114.114c-4.647-.205-15.756.09-25.573.34-6.551.159-12.786.318-16.39.318ZM43.368 105.642c-.045 0-.09-.045-.113-.091-.839-4.787-1.564-11.207-2.245-17.446a773.061 773.061 0 0 0-1.133-9.937c0-.068.045-.114.09-.136.069 0 .114.045.137.09.408 3.154.77 6.603 1.156 9.938.68 6.216 1.406 12.659 2.244 17.423-.022.091-.068.159-.136.159Z"/><path fill="#0470FF" d="M59.192 93.346a.125.125 0 0 1-.113-.069c-5.872-16.539-9.885-42.084-11.653-60.507 0-.068.045-.113.09-.113.069 0 .114.045.114.09 1.768 18.4 5.758 43.923 11.63 60.44.023.068 0 .113-.068.136.023.023 0 .023 0 .023Z"/><path fill="#0470FF" d="M81.32 38.125c-6.847-.023-16.596-.772-25.21-1.43-4.285-.317-8.32-.635-11.585-.816-.069 0-.114-.068-.114-.114 0-.068.068-.113.114-.113 3.264.181 7.322.499 11.584.817 8.615.657 18.364 1.406 25.188 1.429.068 0 .113.045.113.113.023.068-.022.114-.09.114ZM82.18 88.06c-.045 0-.09-.046-.113-.091-.022-.068.023-.114.091-.136 4.92-1.248 12.492-4.198 16.845-6.557.045-.023.113 0 .158.045.023.046 0 .114-.045.16-4.376 2.359-11.948 5.33-16.89 6.579h-.045Z"/><mask id="a" width="29" height="22" x="72" y="31" maskUnits="userSpaceOnUse" style="mask-type:alpha"><path fill="#F2F1F0" d="M97.702 45.603c-1.746 2.193-4.558 4.088-6.72 5.096-2.249 1.066-4.44 1.658-6.926 1.806-2.605.148-5.091.178-7.637-.68-1.687-.564-3.315-1.6-4.055-3.23-.74-1.629-.326-3.969 1.006-5.154 2.31-2.014 4.44-1.066 6.542-1.629 1.243-.326 2.072-.918 2.93-1.896 1.658-1.866 2.576-4.502 4.352-6.22 2.16-2.104 3.7-2.696 6.808-2.696 1.628 0 3.582.918 4.559 2.222.621.829 1.213 2.044 1.42 3.05.711 3.674-.03 6.488-2.279 9.331Z"/></mask><g mask="url(#a)"><path fill="#D9D9D9" d="M88.5 35.5c-3.5-2-7 .167-8.5 1L87 52c1-.5 2.983-1.269 4.5-4 2.5-4.5.13-10.711-3-12.5Z"/></g><path fill="#fff" d="M88.19 45.52c-1.338 1.68-3.492 3.132-5.147 3.903-1.723.817-3.4 1.27-5.305 1.384-1.995.113-3.9.136-5.85-.522-1.292-.431-2.538-1.225-3.105-2.473-.567-1.248-.25-3.04.77-3.947 1.769-1.543 3.401-.817 5.01-1.248.953-.25 1.588-.703 2.245-1.452 1.27-1.43 1.973-3.449 3.333-4.764 1.655-1.611 2.834-2.065 5.214-2.065 1.247 0 2.743.703 3.492 1.702.476.635.93 1.565 1.088 2.336.544 2.813-.023 4.969-1.746 7.147Z"/><path fill="#E2E2E2" d="m20.063 48.947-6.847-8.667a1.098 1.098 0 0 1-.09-1.248v-.022a4.958 4.958 0 0 1 2.833-2.224c.43-.136.907.023 1.202.363l6.846 8.667c.386.476.295 1.18-.181 1.565l-2.2 1.747a1.114 1.114 0 0 1-1.564-.181ZM82.544 125.743l-1.043-.681a.27.27 0 0 1-.113-.113l-1.746-2.246a.47.47 0 0 1 .091-.658l1.043-.817a.47.47 0 0 1 .657.091l1.791 2.291c.023.046.068.091.068.137l.363 1.111c.09.295 0 .636-.25.817-.249.25-.589.25-.86.068Z"/><path fill="#B7B7B7" d="m21.627 49.128.272-.227c-.114-.159-.227-.295-.34-.43-1.973-2.406-3.945-4.833-5.918-7.238-.408-.5-.816-.998-1.178-1.52-.25-.34-.703-.726-.817-1.384-.181.204-.34.454-.498.68v.023c-.227.386-.204.885.09 1.248l6.847 8.666c.363.477 1.043.568 1.542.182ZM82.09 122.204l-.657-.84a.47.47 0 0 0-.657-.09l-1.043.816a.47.47 0 0 0-.09.658l.929 1.203a28.67 28.67 0 0 1 1.519-1.747Z"/><path fill="#FF4053" d="m69.962 118.574-53.64-68.81c-.408-.522-.408-1.248.023-1.748l.77-.952a15.46 15.46 0 0 1 5.827-4.47l.77-.34c.59-.25 1.293-.09 1.678.431l53.708 68.901c.09.114.159.25.227.409l2.81 8.485a1.415 1.415 0 0 1-.385 1.52l-1.36.998a1.412 1.412 0 0 1-1.564.204l-8.343-4.22a1.169 1.169 0 0 1-.522-.408ZM34.459 83a1.151 1.151 0 0 1-1.61-.204L15.551 60.041a2.114 2.114 0 0 1-.272-2.065l1.134-2.722c.158-.363.657-.431.884-.114l17.751 22.756a3.577 3.577 0 0 1-.59 5.104Z"/><path fill="#E51735" d="M71.798 116.827 17.863 47.2s-.294-.25-.204-.817c0 0-.453.522-.566.658l-.771.953c-.408.499-.408 1.225-.023 1.746l53.662 68.834c.136.159.295.295.5.408l8.342 4.22c.522.25 1.134.159 1.564-.204l.136-.091-7.89-5.309a3.784 3.784 0 0 1-.815-.771Z"/><path fill="#FF4053" d="m23.554 63.898-6.914-8.871 3.559-2.224.907 1.18.136.908 5.44 7.033-3.128 1.974Z"/><path fill="#E51735" d="M34.414 79.801c-1.315-1.928-2.766-3.766-4.195-5.603-2.108-2.7-4.216-5.423-6.325-8.122-2.176-2.814-4.353-5.604-6.484-8.463-.498-.658-1.156-1.316-1.02-2.2 0-.046.023-.114.045-.205 0 0 0 .023-.022.023l-1.134 2.722a2.06 2.06 0 0 0 .272 2.065L32.85 82.773c.386.5 1.111.59 1.61.205.272-.205.476-.432.68-.704.068-.181.09-.386.09-.59 0-.658-.407-1.293-.815-1.883ZM21.241 54.913l-2.539 1.589-.272-.364c-.068-.113-.09-.226-.068-.362.023-.114.113-.182.34-.34l2.88-1.748-.34 1.225ZM26.682 61.924l-2.697 1.701-.545-.68 2.721-1.702.521.68ZM23.1 62.559c-.045 0-.068-.023-.09-.045l-4.194-5.581c-.046-.046-.023-.114.022-.16.046-.045.114-.022.16.023l4.193 5.581c.046.046.023.114-.022.16-.023 0-.046.022-.068.022ZM17.274 49.945c-.022 0-.045 0-.045-.023-.045-.022-.068-.09-.045-.159 1.7-2.972 4.557-5.24 7.844-6.193.068-.023.113.022.136.068.023.045-.023.113-.068.136-3.242.93-6.03 3.154-7.708 6.08-.023.068-.068.09-.114.09ZM55.566 99.653c-.023 0-.046 0-.068-.023-.046-.045-.068-.114-.023-.159 2.04-3.04 5.237-5.535 8.343-6.488.068-.023.113.022.136.068.023.068-.023.113-.068.136-3.06.953-6.212 3.426-8.23 6.42a.172.172 0 0 1-.09.046ZM70.189 118.12c-.023 0-.046 0-.068-.023a.138.138 0 0 1-.023-.158c2.63-3.245 5.033-5.264 8.026-6.761.045-.023.113 0 .158.045.023.046 0 .114-.045.159-2.947 1.475-5.328 3.471-7.958 6.693a.176.176 0 0 1-.09.045Z"/><path fill="#FF4053" d="M55.566 99.653c-.023 0-.046 0-.068-.023-.046-.023-.068-.113-.046-.159.363-.59.748-1.089 1.224-1.61a.11.11 0 0 1 .16 0 .11.11 0 0 1 0 .158c-.477.522-.862.998-1.202 1.566 0 .045-.023.068-.068.068ZM70.189 118.188c-.023 0-.046 0-.068-.023-.046-.045-.068-.113-.023-.158.317-.477.793-1.067 1.156-1.43a.11.11 0 0 1 .159 0 .11.11 0 0 1 0 .159 9.908 9.908 0 0 0-1.134 1.407.176.176 0 0 1-.09.045ZM17.025 50.036c-.023 0-.046 0-.068-.023-.046-.045-.068-.114-.023-.159.408-.567.861-1.134 1.247-1.588a.11.11 0 0 1 .159 0 .11.11 0 0 1 0 .159c-.386.454-.84.998-1.247 1.565 0 .023-.046.046-.068.046Z"/><path fill="#B7B7B7" d="M82.884 125.357c-.272-.158-.567-.317-.793-.544-.182-.159-.318-.363-.454-.567l-.612-.885c-.159-.227-.295-.477-.612-.34a.701.701 0 0 0-.25.204l-.045.045 1.315 1.679c.023.045.068.068.113.113l1.043.681a.714.714 0 0 0 .862-.045c.068-.046.113-.114.159-.182-.318.068-.567-.068-.726-.159Z"/><path fill="#00A4FD" d="M96.055 73.176a1.32 1.32 0 0 1-1.133-.635l-.068-.113c-1.247-1.929-2.426-3.766-3.537-6.08a1.37 1.37 0 0 1 .658-1.815 1.367 1.367 0 0 1 1.813.657c1.02 2.156 2.154 3.925 3.356 5.786l.068.113a1.36 1.36 0 0 1-.408 1.883c-.25.136-.5.204-.749.204Z"/><path fill="#965EEB" d="M21.263 32.612c-.158 0-.34-.023-.498-.091-1.474-.59-2.54-1.497-3.424-2.927-.408-.635-.204-1.474.43-1.883.636-.408 1.475-.204 1.883.431.59.93 1.201 1.452 2.13 1.838a1.336 1.336 0 0 1 .749 1.77 1.344 1.344 0 0 1-1.27.862Z"/><path fill="#E23E52" d="M35.704 80.437c-.657 0-1.201-.454-1.337-1.112-.204-.5-1.383-1.951-1.814-2.496-.159-.181-.272-.34-.385-.476-.454-.59-.363-1.452.226-1.906.59-.454 1.451-.363 1.905.227.09.136.226.272.362.454 1.61 2.019 2.313 2.995 2.38 3.811a1.352 1.352 0 0 1-1.223 1.475c-.023.023-.068.023-.114.023Z"/><path fill="#0071FF" d="m94.83 72.45.069.114c.25.408.703.635 1.133.635.25 0 .5-.068.726-.227l.023-.022c-1.678-2.405-3.152-4.855-4.263-7.17-.204-.408-.385-.816-.59-1.225-.68.318-.951 1.135-.634 1.815 1.11 2.292 2.29 4.13 3.537 6.08Z"/><path fill="#FF101B" d="M32.418 74.447a1.344 1.344 0 0 0-.227 1.906c.113.136.227.295.385.476.454.545 1.61 1.997 1.814 2.496.113.635.68 1.111 1.337 1.111h.137a3.709 3.709 0 0 0-.749-2.563l-2.697-3.426Z"/><path fill="#5823D9" d="M21.785 29.98c-.952-.386-1.565-.908-2.131-1.838a1.34 1.34 0 0 0-1.723-.499c.703 2.065 2.47 3.63 4.67 3.993.159-.68-.159-1.384-.816-1.656Z"/></svg>
