<svg width="30" height="30" viewBox="0 0 30 30" fill="none" xmlns="http://www.w3.org/2000/svg">
<path d="M27.1875 28.125H2.8125C2.295 28.125 1.875 27.7059 1.875 27.1875V2.8125C1.875 2.295 2.295 1.875 2.8125 1.875C3.33 1.875 3.75 2.295 3.75 2.8125V26.25H27.1875C27.705 26.25 28.125 26.6691 28.125 27.1875C28.125 27.7059 27.705 28.125 27.1875 28.125Z" fill="#BE785E"/>
<path d="M27.0361 9.56375C26.9414 9.335 26.7586 9.15219 26.5289 9.05656C26.4146 9.00875 26.2927 8.98438 26.1708 8.98438H23.2983C22.7808 8.98438 22.3608 9.40438 22.3608 9.92188C22.3608 10.4394 22.7808 10.8594 23.2983 10.8594H23.9077L19.0618 15.7053L16.6777 13.3212C16.3261 12.9697 15.7036 12.9697 15.3521 13.3212L6.21145 22.4619C5.84488 22.8284 5.84488 23.4209 6.21145 23.7875C6.39426 23.9703 6.63426 24.0622 6.87426 24.0622C7.11426 24.0622 7.35426 23.9703 7.53707 23.7875L16.0149 15.3097L18.3989 17.6937C18.5752 17.87 18.8133 17.9684 19.0618 17.9684C19.3102 17.9684 19.5493 17.87 19.7246 17.6937L25.2333 12.185V12.7944C25.2333 13.3119 25.6533 13.7319 26.1708 13.7319C26.6883 13.7319 27.1083 13.3119 27.1083 12.7944V9.92188C27.1093 9.8 27.0839 9.67906 27.0361 9.56375Z" fill="#BE785E"/>
<path d="M15 25.0784C14.4825 25.0784 14.0625 24.6594 14.0625 24.1409V22.1094C14.0625 21.5909 14.4825 21.1719 15 21.1719C15.5175 21.1719 15.9375 21.5909 15.9375 22.1094V24.1409C15.9375 24.6594 15.5175 25.0784 15 25.0784Z" fill="#BE785E"/>
<path d="M20.0781 25.0778C19.5606 25.0778 19.1406 24.6588 19.1406 24.1403V20.0781C19.1406 19.5597 19.5606 19.1406 20.0781 19.1406C20.5956 19.1406 21.0156 19.5597 21.0156 20.0781V24.1403C21.0156 24.6588 20.5956 25.0778 20.0781 25.0778Z" fill="#BE785E"/>
<path d="M25.1562 25.0778C24.6388 25.0778 24.2188 24.6587 24.2188 24.1403V17.0312C24.2188 16.5128 24.6388 16.0938 25.1562 16.0938C25.6738 16.0938 26.0938 16.5128 26.0938 17.0312V24.1403C26.0938 24.6587 25.6747 25.0778 25.1562 25.0778Z" fill="#BE785E"/>
</svg>
