<svg width="24" height="24" viewBox="0 0 24 24" fill="none" xmlns="http://www.w3.org/2000/svg">
<g clip-path="url(#clip0_3_479)">
<path d="M21.0701 2.8678H2.93482C1.31595 2.8678 0 4.18375 0 5.80262V18.1974C0 19.8163 1.31595 21.1322 2.93482 21.1322H21.0652C22.684 21.1322 24 19.8163 24 18.1974V5.80759C24.005 4.18872 22.689 2.8678 21.0701 2.8678ZM22.6642 18.1974C22.6642 19.0764 21.9491 19.7914 21.0701 19.7914H2.93482C2.05587 19.7914 1.34078 19.0764 1.34078 18.1974V5.80759C1.34078 4.92863 2.05587 4.21355 2.93482 4.21355H21.0652C21.9441 4.21355 22.6592 4.92863 22.6592 5.80759V18.1974H22.6642Z" fill="#C0AC83"/>
<path d="M15.1359 11.8461L21.0056 6.58227C21.2787 6.33397 21.3035 5.91188 21.0552 5.63379C20.8069 5.36067 20.3848 5.33584 20.1067 5.58413L12.0124 12.8492L10.4332 11.4389C10.4283 11.4339 10.4233 11.4289 10.4233 11.424C10.3885 11.3892 10.3538 11.3594 10.3141 11.3296L3.88824 5.57916C3.61015 5.33087 3.18805 5.3557 2.93976 5.63379C2.69147 5.91188 2.71629 6.33397 2.99438 6.58227L8.93355 11.8908L3.01921 17.4277C2.75106 17.681 2.73616 18.1031 2.98942 18.3762C3.1235 18.5152 3.30227 18.5897 3.48104 18.5897C3.64491 18.5897 3.80878 18.5301 3.9379 18.4109L9.94162 12.7946L11.5704 14.2496C11.6995 14.3638 11.8584 14.4184 12.0174 14.4184C12.1763 14.4184 12.3401 14.3588 12.4643 14.2446L14.1378 12.7449L20.1067 18.4159C20.2358 18.5401 20.4047 18.5996 20.5686 18.5996C20.7473 18.5996 20.9211 18.5301 21.0552 18.3911C21.3085 18.1229 21.2985 17.6959 21.0304 17.4426L15.1359 11.8461Z" fill="#C0AC83"/>
</g>
<defs>
<clipPath id="clip0_3_479">
<rect width="24" height="24" fill="white"/>
</clipPath>
</defs>
</svg>
