<svg width="24" height="24" viewBox="0 0 24 24" fill="none" xmlns="http://www.w3.org/2000/svg">
<path d="M19.7694 4.22446C17.6919 2.14698 14.9327 1 11.9938 1C9.05495 1 6.29574 2.14698 4.21827 4.22446C0.210733 8.23199 -0.079468 14.6348 3.49046 18.974C2.99758 19.9828 2.41718 20.6554 1.75847 20.9778C1.35772 21.1759 1.13201 21.6089 1.1965 22.0511C1.26559 22.4979 1.60646 22.8434 2.05328 22.9125C2.29742 22.9493 2.55998 22.9724 2.83175 22.9724C4.18142 22.9724 5.60018 22.5071 6.78402 21.6918C8.37782 22.5486 10.1697 23 11.9938 23C14.9327 23 17.6919 21.8576 19.7694 19.7802C21.8468 17.7027 22.9892 14.9389 22.9892 12.0046C22.9892 9.07035 21.8468 6.30193 19.7694 4.22446ZM18.8895 18.8957C17.047 20.7383 14.5964 21.7517 11.9938 21.7517C10.2526 21.7517 8.54365 21.2864 7.05579 20.4112C6.95906 20.3559 6.84851 20.3237 6.74256 20.3237C6.60897 20.3237 6.47078 20.3698 6.36023 20.4527C4.95068 21.5444 3.53192 21.7056 2.91006 21.7194C3.65169 21.1667 4.27355 20.3099 4.79407 19.1168C4.8908 18.8957 4.84934 18.6378 4.68812 18.4535C1.27941 14.6026 1.45906 8.73409 5.09809 5.09506C6.94063 3.25251 9.39122 2.23911 11.9938 2.23911C14.5964 2.23911 17.047 3.25251 18.8895 5.09506C22.6944 8.90452 22.6944 15.0955 18.8895 18.8957Z" fill="#FFFFFF"/>
<path d="M16.6002 8.37024H7.38748C7.04201 8.37024 6.76562 8.64662 6.76562 8.9921C6.76562 9.33758 7.04201 9.61396 7.38748 9.61396H16.6002C16.9457 9.61396 17.2221 9.33758 17.2221 8.9921C17.2221 8.64662 16.9411 8.37024 16.6002 8.37024Z" fill="#FFFFFF"/>
<path d="M16.6002 11.3782H7.38748C7.04201 11.3782 6.76562 11.6546 6.76562 12C6.76562 12.3455 7.04201 12.6219 7.38748 12.6219H16.6002C16.9457 12.6219 17.2221 12.3455 17.2221 12C17.2221 11.6546 16.9411 11.3782 16.6002 11.3782Z" fill="#FFFFFF"/>
<path d="M16.6002 14.3861H7.38748C7.04201 14.3861 6.76562 14.6625 6.76562 15.008C6.76562 15.3534 7.04201 15.6298 7.38748 15.6298H16.6002C16.9457 15.6298 17.2221 15.3534 17.2221 15.008C17.2221 14.6625 16.9411 14.3861 16.6002 14.3861Z" fill="#FFFFFF"/>
</svg>
