<svg width="30" height="30" viewBox="0 0 30 30" fill="none" xmlns="http://www.w3.org/2000/svg">
<path d="M27.2528 21.5249C29.9586 17.7287 29.545 12.5276 25.8493 9.13966C24.1607 7.59173 22.008 6.62808 19.6827 6.35896C19.6682 6.34113 19.6534 6.32347 19.6371 6.30657C17.6142 4.2052 14.7079 3 11.6634 3C5.86987 3 1 7.31665 1 12.8437C1 14.7816 1.60195 16.6393 2.74541 18.2436L1.14804 23.2588C1.04763 23.574 1.1464 23.9186 1.39845 24.1328C1.65095 24.3474 2.00712 24.3887 2.3014 24.239L7.15912 21.7689C8.15673 22.1985 9.21461 22.4803 10.3101 22.6086C12.4233 24.8309 15.3453 25.9687 18.3348 25.9687C19.8888 25.9687 21.4372 25.6521 22.8389 25.0501L27.6968 27.5203C27.8145 27.5801 27.9418 27.6094 28.0684 27.6094C28.622 27.6094 29.0189 27.0699 28.8502 26.5401L27.2528 21.5249ZM7.4902 20.1183C7.26046 20.0092 6.9932 20.0128 6.76652 20.1281L3.30661 21.8874L4.43645 18.3401C4.5187 18.0818 4.46812 17.7996 4.30121 17.586C3.21479 16.1953 2.64052 14.5555 2.64052 12.8437C2.64052 8.32055 6.68816 4.64062 11.6634 4.64062C13.6669 4.64062 15.5957 5.2476 17.1603 6.34064C11.8912 6.87045 7.67144 10.9859 7.67144 16.125C7.67144 17.7234 8.08115 19.2622 8.85362 20.6409C8.38593 20.5016 7.93044 20.3274 7.4902 20.1183ZM23.2317 23.4093C23.0083 23.2957 22.7408 23.2889 22.508 23.3996C21.2292 24.007 19.7861 24.3281 18.3348 24.3281C13.3596 24.3281 9.31195 20.6482 9.31195 16.125C9.31195 11.6018 13.3596 7.92187 18.3348 7.92187C23.3101 7.92187 27.3577 11.6018 27.3577 16.125C27.3577 17.8368 26.7835 19.4766 25.697 20.8672C25.5301 21.0808 25.4795 21.363 25.5617 21.6213L26.6916 25.1686L23.2317 23.4093Z" fill="#BE785E"/>
<path d="M14.999 16.9453C15.4521 16.9453 15.8193 16.578 15.8193 16.125C15.8193 15.672 15.4521 15.3047 14.999 15.3047C14.546 15.3047 14.1787 15.672 14.1787 16.125C14.1787 16.578 14.546 16.9453 14.999 16.9453Z" fill="#BE785E"/>
<path d="M18.2803 16.9453C18.7333 16.9453 19.1006 16.578 19.1006 16.125C19.1006 15.672 18.7333 15.3047 18.2803 15.3047C17.8272 15.3047 17.46 15.672 17.46 16.125C17.46 16.578 17.8272 16.9453 18.2803 16.9453Z" fill="#BE785E"/>
<path d="M21.5615 16.9453C22.0146 16.9453 22.3818 16.578 22.3818 16.125C22.3818 15.672 22.0146 15.3047 21.5615 15.3047C21.1085 15.3047 20.7412 15.672 20.7412 16.125C20.7412 16.578 21.1085 16.9453 21.5615 16.9453Z" fill="#BE785E"/>
</svg>
