<svg xmlns="http://www.w3.org/2000/svg" width="18" height="8"><path d="M10.139 7.982l3.941-.012.12-.07a.539.539 0 0 0 .215-.677.641.641 0 0 0-.355-.3c-.074-.023.058-.032-5.722-.023-7.34.007-4.633 0-4.855-.034A2.74 2.74 0 0 1 1.9 6.128a1.981 1.981 0 0 1-.4-.561 3.946 3.946 0 0 1-.365-1.984A2.464 2.464 0 0 1 3.1 1.207c.575-.14-5.71-.131 5.171-.138 6.375-.007 6.558 0 6.746.014a1.814 1.814 0 0 1 1.583 1.08 2.1 2.1 0 0 1-.037 2.149 1.973 1.973 0 0 1-1.025.748l-.237.08-4.228.007c-6.732 0-5.505 0-5.693-.031a.988.988 0 0 1-.823-.481l-.085-.169v-.4a1.233 1.233 0 0 1 .057-.54.957.957 0 0 1 .706-.546c.155-.041-1.865-.043 3.026-.043 4.874 0 2.119 0 2.214-.044a.533.533 0 0 0 0-1c-.115-.048-5-.06-5.278-.017a2.041 2.041 0 0 0-1.856 2.065 1.961 1.961 0 0 0 .59 1.621 2.484 2.484 0 0 0 1.3.622c.2.041-1.66.043 5.79.043 7.563 0 4.335 0 4.528-.046a3.151 3.151 0 0 0 1.861-1.145 3.384 3.384 0 0 0 .49-.98 3.483 3.483 0 0 0-.3-2.428A3.373 3.373 0 0 0 16.57.474a3.459 3.459 0 0 0-.893-.4l-.25-.068L8.674 0C1.349 0 3.843 0 3.645.021a4.817 4.817 0 0 0-1.823.535 3.572 3.572 0 0 0-1.78 2.72 5.013 5.013 0 0 0 .24 2.25A3.674 3.674 0 0 0 3.72 7.982c.28.024-1.456.024 6.419 0z" fill="#333" fill-rule="evenodd" opacity=".8"/></svg>