<svg width="24" height="24" viewBox="0 0 24 24" fill="none" xmlns="http://www.w3.org/2000/svg">
<path d="M19.05 1H4.75C3.2342 1 2 2.2331 2 3.75V20.25C2 21.7669 3.2342 23 4.75 23H19.05C20.5658 23 21.8 21.7669 21.8 20.25V3.75C21.8 2.2331 20.5658 1 19.05 1ZM20.7 20.25C20.7 21.1597 19.9597 21.9 19.05 21.9H4.75C3.8403 21.9 3.1 21.1597 3.1 20.25V3.75C3.1 2.8403 3.8403 2.1 4.75 2.1H19.05C19.9597 2.1 20.7 2.8403 20.7 3.75V20.25Z" fill="#C0AC83"/>
<path d="M8.0499 6.5H6.9499C6.6463 6.5 6.3999 6.7464 6.3999 7.05C6.3999 7.3536 6.6463 7.6 6.9499 7.6H8.0499C8.3535 7.6 8.5999 7.3536 8.5999 7.05C8.5999 6.7464 8.3535 6.5 8.0499 6.5Z" fill="#C0AC83"/>
<path d="M16.85 6.5H10.25C9.94635 6.5 9.69995 6.7464 9.69995 7.05C9.69995 7.3536 9.94635 7.6 10.25 7.6H16.85C17.1536 7.6 17.4 7.3536 17.4 7.05C17.4 6.7464 17.1536 6.5 16.85 6.5Z" fill="#C0AC83"/>
<path d="M8.0499 10.9H6.9499C6.6463 10.9 6.3999 11.1464 6.3999 11.45C6.3999 11.7536 6.6463 12 6.9499 12H8.0499C8.3535 12 8.5999 11.7536 8.5999 11.45C8.5999 11.1464 8.3535 10.9 8.0499 10.9Z" fill="#C0AC83"/>
<path d="M16.85 10.9H10.25C9.94635 10.9 9.69995 11.1464 9.69995 11.45C9.69995 11.7536 9.94635 12 10.25 12H16.85C17.1536 12 17.4 11.7536 17.4 11.45C17.4 11.1464 17.1536 10.9 16.85 10.9Z" fill="#C0AC83"/>
<path d="M8.0499 15.3H6.9499C6.6463 15.3 6.3999 15.5464 6.3999 15.85C6.3999 16.1536 6.6463 16.4 6.9499 16.4H8.0499C8.3535 16.4 8.5999 16.1536 8.5999 15.85C8.5999 15.5464 8.3535 15.3 8.0499 15.3Z" fill="#C0AC83"/>
<path d="M16.85 15.3H10.25C9.94635 15.3 9.69995 15.5464 9.69995 15.85C9.69995 16.1536 9.94635 16.4 10.25 16.4H16.85C17.1536 16.4 17.4 16.1536 17.4 15.85C17.4 15.5464 17.1536 15.3 16.85 15.3Z" fill="#C0AC83"/>
</svg>
