<svg width="24" height="24" viewBox="0 0 24 24" fill="none" xmlns="http://www.w3.org/2000/svg">
<g clip-path="url(#clip0_260_396)">
<path d="M20.6112 7.28999H14.3284V2.80837C14.3284 2.07749 14.0442 1.39349 13.53 0.884618C13.0152 0.369743 12.3319 0.0862427 11.6059 0.0862427H2.96591C1.46478 0.0862427 0.243408 1.30762 0.243408 2.80874V8.56874C0.243408 10.0699 1.46478 11.2912 2.96591 11.2912H3.12341V12.8887C3.12341 13.4145 3.43728 13.8814 3.92253 14.0779C4.07891 14.1409 4.24128 14.1716 4.40216 14.1716C4.73816 14.1716 5.06553 14.0385 5.30516 13.7899L7.13441 11.9707V17.3231C7.13441 19.0575 8.54553 20.4686 10.2799 20.4686H14.8515L17.8827 23.4832C18.1553 23.7645 18.5209 23.9141 18.8948 23.9141C19.0733 23.9141 19.2533 23.88 19.4258 23.8102C19.9647 23.5924 20.3123 23.0734 20.3123 22.4891V20.4686H20.6108C22.3452 20.4686 23.7563 19.0575 23.7563 17.3231V10.4355C23.7567 8.70112 22.3455 7.28999 20.6112 7.28999ZM7.13703 10.3819L4.50416 12.9997C4.45841 13.0474 4.40478 13.0597 4.34441 13.0346C4.30053 13.017 4.24841 12.9772 4.24841 12.8884V10.7284C4.24841 10.4175 3.99678 10.1659 3.68591 10.1659H2.96591C2.08503 10.1659 1.36841 9.44924 1.36841 8.56837V2.80837C1.36841 1.92749 2.08503 1.21087 2.96591 1.21087H11.6059C12.0312 1.21087 12.432 1.37737 12.7365 1.68187C13.0377 1.97999 13.2034 2.38012 13.2034 2.80837V7.28999H10.2799C9.44141 7.28999 8.65203 7.61774 8.05691 8.21249C7.47491 8.79449 7.15091 9.56324 7.13703 10.3819ZM22.6317 17.3227C22.6317 18.4369 21.7253 19.3432 20.6112 19.3432H19.7502C19.4397 19.3432 19.1877 19.5952 19.1877 19.9057V22.4887C19.1877 22.6729 19.059 22.7452 19.0039 22.7674C18.9503 22.7887 18.8123 22.8255 18.6837 22.6927L15.4808 19.5071C15.3754 19.4025 15.2329 19.3432 15.084 19.3432H10.2799C9.16578 19.3432 8.25941 18.4369 8.25941 17.3227V10.4355C8.25941 9.89699 8.47016 9.39037 8.85228 9.00824C9.23478 8.62574 9.74178 8.41499 10.2799 8.41499H20.6112C21.7253 8.41499 22.6317 9.32137 22.6317 10.4355V17.3227Z" fill="#FFFFFF"/>
<path d="M11.9633 13.0582C11.5058 13.0582 11.1334 13.431 11.1334 13.8881C11.1334 14.3452 11.5062 14.718 11.9633 14.718C12.4212 14.718 12.7939 14.3452 12.7939 13.8881C12.7939 13.431 12.4212 13.0582 11.9633 13.0582Z" fill="#FFFFFF"/>
<path d="M15.4451 13.0582C14.9876 13.0582 14.6152 13.431 14.6152 13.8881C14.6152 14.3452 14.988 14.718 15.4451 14.718C15.903 14.718 16.2757 14.3452 16.2757 13.8881C16.2757 13.431 15.9034 13.0582 15.4451 13.0582Z" fill="#FFFFFF"/>
<path d="M18.9274 13.0582C18.4699 13.0582 18.0975 13.431 18.0975 13.8881C18.0975 14.3452 18.4703 14.718 18.9274 14.718C19.3853 14.718 19.758 14.3452 19.758 13.8881C19.758 13.431 19.3853 13.0582 18.9274 13.0582Z" fill="#FFFFFF"/>
</g>
<defs>
<clipPath id="clip0_260_396">
<rect width="24" height="24" fill="white"/>
</clipPath>
</defs>
</svg>
