<svg width="30" height="30" viewBox="0 0 30 30" fill="none" xmlns="http://www.w3.org/2000/svg">
<path d="M26.25 20.3125H25.41C25.3012 19.83 25.1088 19.38 24.8512 18.975L25.4463 18.3787C25.8125 18.0125 25.8125 17.4187 25.4463 17.0525C25.08 16.6863 24.4862 16.6863 24.12 17.0525L23.525 17.6488C23.1187 17.3913 22.67 17.1987 22.1875 17.09V16.25C22.1875 15.7325 21.7675 15.3125 21.25 15.3125C20.7325 15.3125 20.3125 15.7325 20.3125 16.25V17.09C19.83 17.1987 19.3813 17.3913 18.975 17.6488L18.38 17.0525C18.0138 16.6863 17.42 16.6863 17.0537 17.0525C16.6875 17.4187 16.6875 18.0125 17.0537 18.3787L17.6488 18.975C17.3913 19.3813 17.1987 19.83 17.09 20.3125H16.25C15.7325 20.3125 15.3125 20.7325 15.3125 21.25C15.3125 21.7675 15.7325 22.1875 16.25 22.1875H17.09C17.1987 22.67 17.3913 23.12 17.6488 23.525L17.0537 24.1213C16.6875 24.4875 16.6875 25.0812 17.0537 25.4475C17.2362 25.63 17.4763 25.7225 17.7163 25.7225C17.9563 25.7225 18.1962 25.6313 18.3787 25.4475L18.9738 24.8512C19.38 25.1088 19.8288 25.3012 20.3113 25.41V26.25C20.3113 26.7675 20.7313 27.1875 21.2488 27.1875C21.7663 27.1875 22.1863 26.7675 22.1863 26.25V25.41C22.6688 25.3012 23.1175 25.1088 23.5238 24.8512L24.1187 25.4475C24.3013 25.63 24.5413 25.7225 24.7812 25.7225C25.0213 25.7225 25.2612 25.6313 25.4437 25.4475C25.81 25.0812 25.81 24.4875 25.4437 24.1213L24.8487 23.525C25.1062 23.1187 25.2987 22.67 25.4075 22.1875H26.2475C26.765 22.1875 27.185 21.7675 27.185 21.25C27.185 20.7325 26.765 20.3125 26.2475 20.3125H26.25ZM22.9375 22.9375C22.93 22.945 22.9275 22.955 22.9212 22.9625C22.4888 23.3838 21.9012 23.6462 21.2512 23.6462C20.6012 23.6462 20.0125 23.3838 19.5813 22.9625C19.5737 22.955 19.5713 22.945 19.565 22.9375C19.5588 22.93 19.5475 22.9275 19.54 22.9212C19.1187 22.4888 18.8562 21.9 18.8562 21.2512C18.8562 20.6025 19.1187 20.0138 19.54 19.5812C19.5475 19.5737 19.5575 19.5725 19.565 19.565C19.5725 19.5575 19.575 19.5475 19.5813 19.54C20.0138 19.1187 20.6012 18.8563 21.2512 18.8563C21.9012 18.8563 22.49 19.1187 22.9212 19.54C22.9287 19.5475 22.9312 19.5575 22.9375 19.565C22.9438 19.5725 22.955 19.575 22.9625 19.5812C23.3838 20.0138 23.6462 20.6012 23.6462 21.2512C23.6462 21.9012 23.3838 22.49 22.9625 22.9212C22.955 22.9287 22.945 22.93 22.9375 22.9375ZM15 14.6875C11.7263 14.6875 9.0625 12.0238 9.0625 8.75C9.0625 5.47625 11.7263 2.8125 15 2.8125C18.2738 2.8125 20.9375 5.47625 20.9375 8.75C20.9375 12.0238 18.2738 14.6875 15 14.6875ZM15 4.6875C12.76 4.6875 10.9375 6.51 10.9375 8.75C10.9375 10.99 12.76 12.8125 15 12.8125C17.24 12.8125 19.0625 10.99 19.0625 8.75C19.0625 6.51 17.24 4.6875 15 4.6875ZM14.65 26.25C14.65 25.7325 14.23 25.3125 13.7125 25.3125H7.5C6.63875 25.3125 5.9375 24.6112 5.9375 23.75C5.9375 20.82 8.32125 18.4375 11.25 18.4375H13.75C14.2675 18.4375 14.6875 18.0175 14.6875 17.5C14.6875 16.9825 14.2675 16.5625 13.75 16.5625H11.25C7.2875 16.5625 4.0625 19.7862 4.0625 23.75C4.0625 25.6462 5.60375 27.1875 7.5 27.1875H13.7125C14.23 27.1875 14.65 26.7675 14.65 26.25Z" fill="#BE785E"/>
</svg>
