<svg width="26" height="26" viewBox="0 0 26 26" fill="none" xmlns="http://www.w3.org/2000/svg">
<path fill-rule="evenodd" clip-rule="evenodd" d="M13 26C20.1797 26 26 20.1797 26 13C26 5.8203 20.1797 0 13 0C5.8203 0 0 5.8203 0 13C0 20.1797 5.8203 26 13 26ZM5.6938 4.00375C6.95309 9.29355 8.72128 11.3268 13.6006 13.4385C10.5688 13.5841 6.17888 16.3005 8.50726 19.8416C9.50226 20.8381 10.1673 21.0393 11.3692 21.3453C11.5388 21.9942 11.5388 22.5736 11.3692 23.4554L13.6006 22.3883L13.7461 23.4554C15.2856 22.8951 16.1014 22.501 17.4327 21.5879C18.1918 17.713 18.1174 15.982 16.4626 14.2389C19.0539 11.106 19.3382 8.49574 19.1062 3.30039C15.7261 6.37449 14.9249 8.63635 15.0558 13.4385C11.4073 7.74823 9.35793 5.66797 5.6938 4.00375ZM11.6603 16.0095C11.6603 16.4381 11.3128 16.7856 10.8841 16.7856C10.4555 16.7856 10.108 16.4381 10.108 16.0095C10.108 15.5808 10.4555 15.2333 10.8841 15.2333C11.3128 15.2333 11.6603 15.5808 11.6603 16.0095Z" fill="#C0AC83"/>
</svg>
