<svg xmlns="http://www.w3.org/2000/svg" width="17" height="15"><path d="M8.459 2.478a12.789 12.789 0 0 1 1.326-.965A4.205 4.205 0 0 1 15.9 4.382a4.806 4.806 0 0 1-.7 3.579 14.565 14.565 0 0 1-3.469 3.7c-.978.788-2.016 1.5-3.026 2.246a.263.263 0 0 1-.351.037 29.854 29.854 0 0 1-5.3-4.367 8.287 8.287 0 0 1-1.519-2.121 4.409 4.409 0 0 1 .315-4.722 4.009 4.009 0 0 1 2.966-1.7 4.128 4.128 0 0 1 3.565 1.375.73.73 0 0 0 .078.069z" fill="none" stroke="#fff" stroke-width="1.5" fill-rule="evenodd"/></svg>