<svg width="24" height="24" viewBox="0 0 24 24" fill="none" xmlns="http://www.w3.org/2000/svg">
<path d="M11.9128 12.9319C11.9377 12.9319 11.9625 12.9319 11.9924 12.9319C12.0023 12.9319 12.0122 12.9319 12.0222 12.9319C12.0371 12.9319 12.057 12.9319 12.0719 12.9319C13.5281 12.907 14.706 12.3951 15.5757 11.416C17.4892 9.25906 17.1711 5.5614 17.1363 5.20853C17.012 2.55954 15.7596 1.29219 14.7259 0.700766C13.9555 0.258439 13.0559 0.0198799 12.052 0H12.0172C12.0122 0 12.0023 0 11.9973 0H11.9675C11.4159 0 10.3324 0.0894595 9.29367 0.680886C8.24998 1.27231 6.97767 2.53966 6.85342 5.20853C6.81863 5.5614 6.50055 9.25906 8.41399 11.416C9.27876 12.3951 10.4566 12.907 11.9128 12.9319ZM8.1804 5.33278C8.1804 5.31787 8.18537 5.30296 8.18537 5.29302C8.34938 1.72955 10.8791 1.34686 11.9625 1.34686H11.9824C11.9924 1.34686 12.0073 1.34686 12.0222 1.34686C13.3641 1.37668 15.6453 1.92338 15.7994 5.29302C15.7994 5.30793 15.7994 5.32284 15.8043 5.33278C15.8093 5.36757 16.1572 8.74715 14.5768 10.5264C13.9505 11.2321 13.1156 11.58 12.0172 11.59C12.0073 11.59 12.0023 11.59 11.9924 11.59C11.9824 11.59 11.9775 11.59 11.9675 11.59C10.8741 11.58 10.0342 11.2321 9.41295 10.5264C7.83747 8.75709 8.17543 5.3626 8.1804 5.33278Z" fill="#C0AC83"/>
<path d="M22.2058 19.0649C22.2058 19.0599 22.2058 19.0549 22.2058 19.0499C22.2058 19.0102 22.2008 18.9704 22.2008 18.9257C22.171 17.9416 22.1064 15.6405 19.9494 14.905C19.9345 14.9 19.9146 14.895 19.8997 14.8901C17.6582 14.3185 15.7945 13.0263 15.7746 13.0114C15.4714 12.7977 15.054 12.8723 14.8403 13.1754C14.6265 13.4786 14.7011 13.8961 15.0043 14.1098C15.0888 14.1694 17.0668 15.5461 19.5419 16.1823C20.6999 16.5948 20.8291 17.8323 20.8639 18.9655C20.8639 19.0102 20.8639 19.0499 20.8688 19.0897C20.8738 19.537 20.844 20.2278 20.7645 20.6254C19.9593 21.0827 16.8034 22.6631 12.0024 22.6631C7.22129 22.6631 4.04548 21.0777 3.23537 20.6205C3.15585 20.2229 3.12106 19.532 3.131 19.0847C3.131 19.045 3.13597 19.0052 3.13597 18.9605C3.17076 17.8273 3.29998 16.5898 4.45798 16.1773C6.93303 15.5411 8.91108 14.1595 8.99557 14.1048C9.29874 13.8911 9.37329 13.4736 9.15958 13.1705C8.94587 12.8673 8.52839 12.7927 8.22522 13.0065C8.20534 13.0214 6.35154 14.3136 4.10015 14.8851C4.08027 14.8901 4.06536 14.895 4.05045 14.9C1.89348 15.6405 1.82887 17.9416 1.79905 18.9207C1.79905 18.9655 1.79905 19.0052 1.79408 19.045C1.79408 19.0499 1.79408 19.0549 1.79408 19.0599C1.78911 19.3183 1.78414 20.6453 2.04755 21.3113C2.09725 21.4405 2.18671 21.5498 2.30598 21.6244C2.45508 21.7238 6.02849 24 12.0074 24C17.9863 24 21.5597 21.7188 21.7088 21.6244C21.8231 21.5498 21.9175 21.4405 21.9672 21.3113C22.2157 20.6503 22.2107 19.3233 22.2058 19.0649Z" fill="#C0AC83"/>
</svg>
