<svg width="20" height="20" viewBox="0 0 20 20" fill="none" xmlns="http://www.w3.org/2000/svg">
<g clip-path="url(#clip0_845_7927)">
<path d="M8.04937 16.0918C9.837 16.0918 11.5735 15.4954 12.9838 14.3969L18.3044 19.7176C18.7019 20.1014 19.3353 20.0904 19.7191 19.6929C20.0936 19.3052 20.0936 18.6906 19.7191 18.3029L14.3985 12.9822C17.1242 9.47345 16.4895 4.41937 12.9807 1.69362C9.47194 -1.03214 4.41791 -0.397406 1.69215 3.11138C-1.03361 6.62016 -0.398871 11.6742 3.10991 14.4C4.52252 15.4974 6.26057 16.0927 8.04937 16.0918ZM3.77429 3.77268C6.13538 1.41154 9.96346 1.4115 12.3246 3.77259C14.6857 6.13368 14.6858 9.96176 12.3247 12.3229C9.96359 14.684 6.13551 14.6841 3.77437 12.323C3.77433 12.3229 3.77433 12.3229 3.77429 12.3229C1.4132 9.979 1.39929 6.16488 3.74317 3.80379C3.75353 3.79339 3.76389 3.78303 3.77429 3.77268Z" fill="white"/>
</g>
<defs>
<clipPath id="clip0_845_7927">
<rect width="20" height="20" fill="white"/>
</clipPath>
</defs>
</svg>
