<svg width="20" height="20" viewBox="0 0 20 20" fill="none" xmlns="http://www.w3.org/2000/svg">
<g clip-path="url(#clip0_845_6551)">
<path fill-rule="evenodd" clip-rule="evenodd" d="M19.4299 17.335L2.67781 0.582827C2.0985 0.00396048 1.15979 0.00310475 0.581365 0.581527C0.00280945 1.16008 0.00338709 2.09869 0.582665 2.67797L17.3225 19.4176C17.9018 19.997 18.8404 19.9975 19.4189 19.419C19.9934 18.8445 19.9969 17.9152 19.4299 17.335Z" fill="white"/>
<path fill-rule="evenodd" clip-rule="evenodd" d="M17.3305 0.582787L0.582425 17.3226C0.00314711 17.9019 0.00255835 18.8404 0.581125 19.419C1.15535 19.9932 2.08425 19.997 2.66449 19.4307L19.5159 2.57916C20.0032 1.99645 19.9736 1.12821 19.4269 0.581487C18.8484 0.00293151 17.9097 0.00350915 17.3305 0.582787Z" fill="white"/>
</g>
<defs>
<clipPath id="clip0_845_6551">
<rect width="20" height="20" fill="white"/>
</clipPath>
</defs>
</svg>
