<svg width="24" height="24" viewBox="0 0 24 24" fill="none" xmlns="http://www.w3.org/2000/svg">
<g clip-path="url(#clip0_3_463)">
<path fill-rule="evenodd" clip-rule="evenodd" d="M5.10938 0C3.5601 0 2.29688 1.26323 2.29688 2.8125V21.1875C2.29688 22.7368 3.5601 24 5.10938 24H18.8906C20.4399 24 21.7031 22.7368 21.7031 21.1875V7.40598C21.7031 6.53425 21.3566 5.69776 20.7402 5.08136L16.6218 0.962952C16.0054 0.34655 15.1688 -2.0625e-07 14.2971 0H5.10938ZM5.10938 1.03125H14.2971C14.8957 1.03125 15.4693 1.26889 15.8925 1.69217L20.011 5.81058C20.4342 6.23386 20.6718 6.80736 20.6718 7.40598V21.1875C20.6718 22.1834 19.8865 22.9688 18.8906 22.9688H5.10938C4.11346 22.9688 3.32812 22.1834 3.32812 21.1875V2.8125C3.32812 1.81658 4.11346 1.03125 5.10938 1.03125Z" fill="#C0AC83"/>
<path fill-rule="evenodd" clip-rule="evenodd" d="M8.55402 6.89062C7.64117 6.89062 6.89014 7.64157 6.89014 8.55441V15.4455C6.89014 16.3583 7.64117 17.1094 8.55402 17.1094H15.4451C16.3579 17.1094 17.1089 16.3583 17.1089 15.4455V8.55441C17.1089 7.64157 16.3579 6.89062 15.4451 6.89062H8.55402ZM8.55402 7.92188H15.4451C15.8045 7.92188 16.0776 8.19504 16.0776 8.55441V15.4455C16.0776 15.8049 15.8045 16.0781 15.4451 16.0781H8.55402C8.19465 16.0781 7.92148 15.8049 7.92148 15.4455V8.55441C7.92148 8.19504 8.19465 7.92188 8.55402 7.92188Z" fill="#C0AC83"/>
<path fill-rule="evenodd" clip-rule="evenodd" d="M11.9995 9.18726C11.8628 9.18726 11.7316 9.24158 11.6349 9.33828C11.5382 9.43498 11.4839 9.56613 11.4839 9.70288V11.4843H9.70264C9.56588 11.4843 9.43473 11.5386 9.33804 11.6353C9.24134 11.732 9.18701 11.8632 9.18701 11.9999C9.18701 12.0677 9.20035 12.1347 9.22627 12.1973C9.25219 12.2598 9.29018 12.3167 9.33807 12.3646C9.38596 12.4125 9.44281 12.4504 9.50538 12.4763C9.56795 12.5022 9.63501 12.5156 9.70273 12.5156H11.4839V14.2966C11.4839 14.4334 11.5382 14.5645 11.6349 14.6612C11.7316 14.7579 11.8628 14.8123 11.9995 14.8123C12.1363 14.8123 12.2674 14.7579 12.3641 14.6612C12.4608 14.5645 12.5151 14.4334 12.5151 14.2966V12.5155H14.2964C14.3641 12.5155 14.4312 12.5021 14.4937 12.4762C14.5563 12.4503 14.6131 12.4123 14.661 12.3644C14.7089 12.3165 14.7469 12.2597 14.7728 12.1971C14.7987 12.1345 14.812 12.0675 14.812 11.9998C14.812 11.863 14.7577 11.7319 14.661 11.6352C14.5643 11.5385 14.4331 11.4842 14.2964 11.4842H12.5151V9.70288C12.5151 9.56613 12.4608 9.43498 12.3641 9.33828C12.2674 9.24158 12.1363 9.18726 11.9995 9.18726Z" fill="#C0AC83"/>
</g>
<defs>
<clipPath id="clip0_3_463">
<rect width="24" height="24" fill="white"/>
</clipPath>
</defs>
</svg>
