<svg 
 xmlns="http://www.w3.org/2000/svg"
 xmlns:xlink="http://www.w3.org/1999/xlink"
 width="30px" height="30px">
<path fill-rule="evenodd"  fill="rgb(41, 161, 212)"
 d="M0.000,30.000 L0.000,0.000 L30.000,0.000 L30.000,30.000 L0.000,30.000 ZM23.622,6.622 L3.561,14.440 C2.911,14.693 2.950,15.626 3.619,15.823 L8.717,17.329 L10.619,23.365 C10.818,23.996 11.617,24.187 12.080,23.715 L14.716,21.024 L19.887,24.820 C20.520,25.284 21.421,24.939 21.582,24.171 L25.007,7.795 C25.175,6.993 24.386,6.325 23.622,6.622 ZM11.788,18.497 C11.696,18.579 11.636,18.692 11.623,18.816 L11.264,22.005 C11.252,22.109 11.107,22.123 11.076,22.023 L9.600,17.266 C9.532,17.049 9.620,16.813 9.814,16.693 L20.818,9.868 C21.071,9.711 21.330,10.059 21.107,10.256 L11.788,18.497 Z"/>
</svg>