<svg 
 xmlns="http://www.w3.org/2000/svg"
 xmlns:xlink="http://www.w3.org/1999/xlink"
 width="30px" height="30px">
<path fill-rule="evenodd"  fill="rgb(0, 230, 118)"
 d="M-0.000,30.000 L-0.000,0.000 L30.000,0.000 L30.000,30.000 L-0.000,30.000 ZM15.014,4.497 C9.236,4.497 4.536,9.198 4.536,14.975 C4.536,16.852 5.033,18.678 5.978,20.283 L4.509,25.502 L9.891,24.117 C11.451,24.992 13.213,25.453 15.014,25.453 C20.791,25.453 25.491,20.753 25.491,14.975 C25.491,9.198 20.791,4.497 15.014,4.497 ZM15.014,23.675 C13.412,23.675 11.847,23.237 10.487,22.407 L10.166,22.211 L7.057,23.011 L7.903,20.006 L7.687,19.669 C6.788,18.270 6.313,16.647 6.313,14.975 C6.313,10.178 10.216,6.275 15.014,6.275 C19.811,6.275 23.714,10.178 23.714,14.975 C23.714,19.772 19.811,23.675 15.014,23.675 ZM20.152,17.255 L17.854,16.196 C17.705,16.128 17.528,16.171 17.427,16.301 L16.525,17.470 C16.457,17.559 16.340,17.594 16.235,17.557 C15.618,17.340 13.548,16.473 12.413,14.286 C12.364,14.191 12.376,14.076 12.446,13.995 L13.308,12.998 C13.396,12.896 13.418,12.753 13.365,12.629 L12.375,10.312 C12.322,10.188 12.204,10.106 12.070,10.099 L11.390,10.061 C11.177,10.050 10.967,10.121 10.806,10.261 C10.476,10.548 9.949,11.101 9.787,11.822 C9.546,12.897 9.919,14.214 10.884,15.530 C11.850,16.847 13.649,18.953 16.831,19.853 C17.856,20.143 18.663,19.948 19.285,19.549 C19.778,19.234 20.118,18.728 20.240,18.156 L20.349,17.649 C20.383,17.488 20.301,17.324 20.152,17.255 Z"/>
</svg>