<svg width="126" height="23" viewBox="0 0 126 23" fill="none" xmlns="http://www.w3.org/2000/svg">
<path d="M107 10.1999C106.8 10.1999 106.6 10.1999 106.4 10.0999C106.3 9.9999 106.2 9.8999 106.2 9.6999C106.2 9.3999 106.3 9.0999 106.3 8.7999L107.3 3.7999C107.6 2.5999 107.8 1.5999 108 0.999902H107.7C107.4 1.1999 106.9 1.5999 106.2 2.0999L105 3.0999L104.8 3.2999L104.9 3.5999L105.9 3.0999C106.1 2.9999 106.3 2.8999 106.5 2.8999C106.6 2.8999 106.7 2.9999 106.8 3.0999C106.8 3.0999 106.8 3.0999 106.8 3.1999C106.8 3.3999 106.8 3.4999 106.7 3.6999L106.6 4.0999L105.6 8.9999L105.5 9.3999C105.5 9.6999 105.4 9.8999 105.2 10.0999C105 10.1999 104.7 10.2999 104.4 10.2999H104.1L104 10.5999H107.6L107.7 10.2999L107 10.1999ZM112.4 2.7999C112.4 2.4999 112.5 2.1999 112.7 1.9999C112.9 1.6999 113.1 1.4999 113.4 1.3999C113.7 1.1999 114 1.1999 114.4 1.1999C115.4 1.1999 116.2 1.9999 116.3 2.9999V3.0999C116.3 3.3999 116.2 3.7999 116.1 4.0999C116 4.3999 115.7 4.6999 115.5 4.9999C115.3 5.1999 115 5.3999 114.6 5.4999C113.1 4.4999 112.4 3.5999 112.4 2.7999ZM114.5 6.6999C115.1 7.0999 115.4 7.6999 115.4 8.3999C115.4 8.8999 115.2 9.4999 114.8 9.7999C114.4 10.1999 113.9 10.3999 113.3 10.3999C112.9 10.3999 112.4 10.2999 112.1 10.0999C111.7 9.8999 111.4 9.5999 111.2 9.1999C111 8.7999 110.9 8.3999 110.9 7.9999C110.9 7.3999 111.1 6.8999 111.5 6.3999C111.9 5.8999 112.4 5.5999 113 5.4999C113.4 5.7999 114 6.1999 114.5 6.6999ZM110.7 6.4999C110.2 6.9999 110 7.5999 110 8.1999C110 8.8999 110.3 9.4999 110.8 9.9999C111.4 10.4999 112.2 10.6999 113 10.6999C113.8 10.6999 114.7 10.3999 115.3 9.8999C115.9 9.3999 116.2 8.6999 116.2 7.9999C116.2 7.5999 116.1 7.1999 115.9 6.8999C115.6 6.4999 115.2 6.0999 114.8 5.7999L114.7 5.6999C115.1 5.5999 115.5 5.2999 115.9 4.9999C116.2 4.7999 116.5 4.3999 116.7 4.0999C116.9 3.7999 117 3.3999 117 2.9999C117 2.5999 116.9 2.1999 116.7 1.8999C116.5 1.5999 116.2 1.2999 115.8 1.1999C115.4 0.999902 114.9 0.899902 114.5 0.899902C114 0.899902 113.5 0.999902 113.1 1.1999C112.7 1.3999 112.3 1.6999 112.1 2.0999C111.9 2.4999 111.7 2.8999 111.7 3.3999C111.7 3.6999 111.8 4.0999 111.9 4.3999C112.1 4.7999 112.4 5.0999 112.7 5.2999C111.9 5.4999 111.2 5.8999 110.7 6.4999ZM125.2 4.5999H122.8V1.9999H122V4.5999H119.6V5.2999H122V7.8999H122.8V5.2999H125.2V4.5999Z" fill="#C0AC83"/>
<path d="M4.5998 12.6998H11.4998V15.6998H4.5998V22.3998H1.2998V5.7998H12.6998V8.7998H4.5998V12.6998Z" fill="#C0AC83"/>
<path d="M14.3994 5.7998H25.7994V8.7998H17.6994V12.5998H24.5994V15.5998H17.6994V19.4998H25.7994V22.4998H14.3994V5.7998Z" fill="#C0AC83"/>
<path d="M32.0002 5.7998V22.2998H28.7002V5.7998H32.0002Z" fill="#C0AC83"/>
<path d="M42.6994 5.7998C43.4994 5.7998 44.1994 5.9998 44.7994 6.2998C45.3994 6.5998 45.8994 6.9998 46.2994 7.4998C46.6994 7.9998 46.9994 8.5998 47.1994 9.1998C47.3994 9.7998 47.4994 10.3998 47.4994 10.9998C47.4994 11.5998 47.3994 12.1998 47.1994 12.7998C46.9994 13.3998 46.6994 13.9998 46.2994 14.4998C45.8994 14.9998 45.3994 15.3998 44.7994 15.6998C44.1994 15.9998 43.4994 16.1998 42.6994 16.1998H38.6994V22.3998H35.3994V5.7998H42.6994ZM38.5994 13.1998H41.9994C42.7994 13.1998 43.2994 12.9998 43.6994 12.5998C44.0994 12.1998 44.2994 11.6998 44.2994 10.9998C44.2994 10.3998 44.0994 9.7998 43.6994 9.3998C43.2994 8.9998 42.6994 8.7998 41.9994 8.7998H38.5994V13.1998Z" fill="#C0AC83"/>
<path d="M53.0002 5.7998V22.2998H49.7002V5.7998H53.0002Z" fill="#C0AC83"/>
<path d="M62.9002 8.7998V22.3998H59.6002V8.7998H55.2002V5.7998H67.3002V8.7998H62.9002Z" fill="#C0AC83"/>
<path d="M69 5.7998H80.4V8.7998H72.3V12.5998H79.2V15.5998H72.3V19.4998H80.4V22.4998H69V5.7998Z" fill="#C0AC83"/>
<path d="M90.2002 5.7998C91.0002 5.7998 91.7002 5.9998 92.3002 6.2998C92.9002 6.5998 93.4002 6.9998 93.8002 7.4998C94.2002 7.9998 94.5002 8.5998 94.7002 9.1998C94.9002 9.7998 95.0002 10.3998 95.0002 10.9998C95.0002 11.3998 94.9002 11.8998 94.8002 12.2998C94.7002 12.7998 94.5002 13.1998 94.3002 13.5998C94.1002 13.9998 93.8002 14.3998 93.4002 14.6998C93.1002 14.9998 92.7002 15.2998 92.2002 15.5998L95.2002 22.3998H91.6002C91.5002 22.1998 91.4002 21.9998 91.3002 21.5998C91.2002 21.2998 91.0002 20.8998 90.8002 20.4998C90.6002 20.0998 90.5002 19.6998 90.3002 19.1998C90.1002 18.7998 89.9002 18.2998 89.8002 17.8998C89.6002 17.4998 89.5002 17.0998 89.3002 16.7998C89.2002 16.4998 89.1002 16.1998 89.0002 15.9998H86.0002V22.1998H82.7002V5.7998H90.2002ZM86.1002 13.1998H89.4002C90.2002 13.1998 90.7002 12.9998 91.1002 12.5998C91.5002 12.1998 91.7002 11.6998 91.7002 10.9998C91.7002 10.2998 91.5002 9.7998 91.1002 9.3998C90.7002 8.9998 90.1002 8.7998 89.4002 8.7998H86.1002V13.1998Z" fill="#C0AC83"/>
</svg>
