<svg width="200" height="150" viewBox="0 0 200 150" xmlns="http://www.w3.org/2000/svg">
  <!-- Фон -->
  <rect width="200" height="150" fill="#f8f9fa"/>
  
  <!-- Автомобиль (упрощенный силуэт) -->
  <g transform="translate(100, 75)">
    <!-- Кузов -->
    <path d="M-50,5 L-50,-15 Q-45,-25 -30,-25 L15,-25 Q30,-25 35,-15 L35,5 Q35,15 25,15 L-40,15 Q-50,15 -50,5" 
          fill="#4a5568" stroke="#2d3748" stroke-width="2"/>
    
    <!-- Окна -->
    <rect x="-40" y="-20" width="25" height="15" fill="#a0aec0" rx="2"/>
    <rect x="-10" y="-20" width="25" height="15" fill="#a0aec0" rx="2"/>
    
    <!-- Колеса -->
    <circle cx="-25" cy="15" r="8" fill="#1a202c"/>
    <circle cx="20" cy="15" r="8" fill="#1a202c"/>
    <circle cx="-25" cy="15" r="4" fill="#718096"/>
    <circle cx="20" cy="15" r="4" fill="#718096"/>
  </g>
  
  <!-- Силуэты людей -->
  <g transform="translate(70, 65)" opacity="0.7">
    <!-- Человек 1 -->
    <circle cx="0" cy="0" r="6" fill="#e53e3e"/>
    <path d="M0,6 L0,20 L-5,30 M0,20 L5,30 M0,10 L-8,15 M0,10 L8,15" 
          stroke="#e53e3e" stroke-width="2" stroke-linecap="round" fill="none"/>
  </g>
  
  <g transform="translate(130, 65)" opacity="0.7">
    <!-- Человек 2 -->
    <circle cx="0" cy="0" r="6" fill="#9f7aea"/>
    <path d="M0,6 L0,20 L-5,30 M0,20 L5,30 M0,10 L-8,15 M0,10 L8,15" 
          stroke="#9f7aea" stroke-width="2" stroke-linecap="round" fill="none"/>
  </g>
  
  <!-- Сердечки для романтической атмосферы -->
  <g transform="translate(100, 40)" opacity="0.5">
    <path d="M0,3 C0,1 1,0 2,0 C3,0 4,1 4,2 C4,1 5,0 6,0 C7,0 8,1 8,3 C8,5 4,9 4,9 C4,9 0,5 0,3" 
          fill="#fc8181" transform="translate(-4, -4) scale(1.5)"/>
  </g>
  
  <g transform="translate(150, 50)" opacity="0.3">
    <path d="M0,3 C0,1 1,0 2,0 C3,0 4,1 4,2 C4,1 5,0 6,0 C7,0 8,1 8,3 C8,5 4,9 4,9 C4,9 0,5 0,3" 
          fill="#fc8181" transform="translate(-4, -4)"/>
  </g>
  
  <g transform="translate(50, 50)" opacity="0.3">
    <path d="M0,3 C0,1 1,0 2,0 C3,0 4,1 4,2 C4,1 5,0 6,0 C7,0 8,1 8,3 C8,5 4,9 4,9 C4,9 0,5 0,3" 
          fill="#fc8181" transform="translate(-4, -4)"/>
  </g>
</svg>